<svg width="96" height="96" viewBox="0 0 96 96" fill="none" xmlns="http://www.w3.org/2000/svg">
<path d="M52.0007 44V30L60.8007 21.16C64.0007 18 64.6007 12.96 62.3607 9.04C61.507 7.51807 60.2649 6.24975 58.7611 5.36437C57.2574 4.47898 55.5457 4.00819 53.8007 4C52.9607 4 52.0007 4.12 51.2407 4.36C46.9207 5.52 44.0007 9.52 44.0007 14V26.96L31.4407 39.64C28.1803 42.9665 25.9685 47.1771 25.0797 51.7494C24.1908 56.3217 24.6641 61.0543 26.4407 65.36C29.5207 72.96 36.2407 78.2 44.0007 79.56V82C44.0007 83.04 43.0807 84 42.0007 84H36.0007V92H42.0007C47.4007 92 52.0007 87.56 52.0007 82V80C60.1207 80 68.6407 72.32 68.6407 61C68.6407 51.8 60.9607 44 52.0007 44ZM52.0007 14C52.0007 13.08 52.4407 12.36 53.2807 12.12C54.1607 11.88 55.0807 12.24 55.5207 13.04C55.747 13.4242 55.8384 13.873 55.7804 14.315C55.7224 14.7571 55.5184 15.1672 55.2007 15.48L52.0007 18.92V14ZM44.0007 46C40.1207 48.56 37.2007 52.96 36.1607 57.04L44.0007 59.12V71.32C41.7075 70.705 39.587 69.5694 37.8041 68.0016C36.0211 66.4337 34.6238 64.4758 33.7207 62.28C31.3607 56.44 32.6407 49.8 37.0407 45.32L44.0007 38V46ZM52.0007 72V51.76C56.6807 51.76 60.7207 56.16 60.7207 61C60.7207 68 55.6407 72 52.0007 72Z" fill="black"/>
</svg>
