<svg width="96" height="96" viewBox="0 0 96 96" fill="none" xmlns="http://www.w3.org/2000/svg">
<path d="M82.9088 4.36383C82.2436 4.35764 81.5861 4.50707 80.9888 4.8002L30.5452 17.4547C29.3879 17.4547 28.278 17.9145 27.4596 18.7328C26.6413 19.5512 26.1815 20.6611 26.1815 21.8184V61.8766C23.5601 60.9497 20.7116 60.8817 18.0489 61.6822C15.3862 62.4827 13.0475 64.1103 11.3718 66.329C9.696 68.5477 8.77021 71.2424 8.72852 74.0225C8.68684 76.8027 9.53143 79.5239 11.1399 81.7919C12.7484 84.0598 15.0373 85.7568 17.6748 86.6368C20.3123 87.5168 23.1615 87.5341 25.8096 86.6863C28.4576 85.8385 30.767 84.1696 32.403 81.9214C34.039 79.6732 34.9166 76.9625 34.9088 74.182V46.9529L78.5452 36.0438V48.7856C75.9237 47.8588 73.0753 47.7908 70.4126 48.5913C67.7498 49.3918 65.4112 51.0194 63.7354 53.2381C62.0596 55.4568 61.1338 58.1515 61.0922 60.9316C61.0505 63.7118 61.8951 66.433 63.5036 68.701C65.1121 70.9689 67.4009 72.6659 70.0384 73.5459C72.6759 74.4258 75.5252 74.4432 78.1732 73.5954C80.8213 72.7476 83.1306 71.0787 84.7666 68.8305C86.4026 66.5823 87.2803 63.8715 87.2725 61.0911V8.72747C87.2725 7.57016 86.8127 6.46025 85.9944 5.64191C85.176 4.82357 84.0661 4.36383 82.9088 4.36383ZM34.9088 38.2257V25.1347L78.5452 14.2256V27.3166L34.9088 38.2257Z" fill="black"/>
</svg>
